<?xml version="1.0" encoding="utf-8"?>
<svg xmlns="http://www.w3.org/2000/svg" viewBox="31.0241 81.4627 541.6121 498.4225" width="541.612px" height="498.423px" preserveAspectRatio="none"><g transform="matrix(0.9999999999999999, 0, 0, 0.9999999999999999, -74.18927001953125, -1.114753007888794)" id="object-0"><path d="M 411.00 578.58 C401.02,580.71 388.11,579.97 377.00,576.64 C373.98,575.74 367.45,573.84 362.50,572.42 C357.55,571.00 350.58,568.94 347.00,567.84 C343.42,566.74 339.15,565.46 337.50,565.00 C335.85,564.54 328.20,562.29 320.50,560.00 C312.80,557.71 305.15,555.46 303.50,555.00 C301.85,554.54 298.92,553.67 297.00,553.06 C274.28,545.88 250.78,540.78 234.50,539.49 C224.22,538.67 204.73,540.42 194.50,543.07 C190.10,544.20 185.36,545.37 183.96,545.65 L 181.42 546.16 L 180.19 526.33 C179.51,515.42 178.97,492.84 178.98,476.15 C179.00,441.55 179.01,441.52 187.19,439.06 C197.57,435.94 198.72,435.50 210.00,430.22 C214.68,428.03 221.65,424.81 225.50,423.05 C229.35,421.29 234.30,419.02 236.50,418.00 C238.70,416.97 242.30,415.60 244.50,414.95 C246.70,414.29 249.28,413.36 250.24,412.88 C251.19,412.39 253.53,412.00 255.43,412.00 C257.33,412.00 259.12,411.61 259.42,411.14 C260.76,408.97 280.69,408.16 293.00,409.78 C306.97,411.62 313.12,412.90 318.75,415.11 C322.43,416.56 325.83,417.93 328.75,419.13 C330.26,419.76 332.40,420.61 333.50,421.04 C334.60,421.46 338.51,423.20 342.19,424.90 C345.86,426.61 349.36,428.00 349.95,428.00 C350.54,428.00 351.81,428.40 352.76,428.88 C358.65,431.88 368.03,435.03 374.50,436.18 C377.25,436.68 381.98,437.53 385.00,438.09 C394.86,439.90 416.86,442.52 434.00,443.93 C439.77,444.40 446.41,445.22 448.75,445.76 C454.70,447.12 460.89,451.49 462.58,455.53 C465.72,463.05 463.56,472.37 457.34,478.14 C453.56,481.64 449.91,483.37 441.50,485.62 C435.17,487.32 430.92,487.48 397.25,487.30 C376.76,487.19 360.00,487.26 360.00,487.46 C360.00,488.11 372.92,496.00 373.99,496.00 C375.01,496.00 376.24,496.52 380.74,498.84 C381.97,499.48 384.08,500.00 385.43,500.00 C386.78,500.00 388.16,500.45 388.50,501.00 C388.84,501.55 390.19,502.00 391.50,502.00 C392.81,502.00 394.13,502.40 394.43,502.89 C395.44,504.52 402.37,505.27 416.50,505.27 C429.80,505.27 435.76,504.61 446.00,501.99 C448.48,501.36 452.30,500.60 454.50,500.32 C456.70,500.03 458.93,499.39 459.45,498.90 C459.97,498.40 461.63,498.00 463.14,498.00 C464.65,498.00 466.16,497.55 466.50,497.00 C466.84,496.45 468.19,496.00 469.50,496.00 C470.81,496.00 472.16,495.55 472.50,495.00 C472.84,494.45 474.41,494.00 476.00,494.00 C477.59,494.00 479.16,493.55 479.50,493.00 C479.84,492.45 481.45,492.00 483.07,492.00 C484.70,492.00 486.81,491.60 487.76,491.11 C488.72,490.62 491.75,489.17 494.50,487.88 C502.48,484.15 510.94,476.75 535.99,451.59 C548.91,438.62 559.90,428.00 560.41,428.00 C560.92,428.00 562.17,427.25 563.18,426.34 C566.93,422.94 576.92,418.06 586.07,415.14 C590.63,413.68 598.10,413.68 601.70,415.12 C610.50,418.66 613.00,420.39 613.00,422.93 C613.00,424.92 602.00,439.12 579.63,466.00 C570.25,477.27 557.16,493.02 550.54,500.99 C543.92,508.96 535.21,518.93 531.20,523.15 C521.43,533.42 520.37,533.97 458.00,560.49 C427.51,573.46 418.19,577.05 411.00,578.58 ZM 126.39 572.09 C115.88,576.99 107.00,581.00 106.66,581.00 C105.59,581.00 104.75,576.10 105.50,574.25 C105.89,573.29 106.61,567.78 107.11,562.00 C108.55,545.28 109.97,528.44 111.04,515.50 C111.59,508.90 112.48,498.33 113.02,492.00 C113.56,485.67 114.42,474.65 114.94,467.50 C116.64,443.95 116.96,442.19 120.22,438.93 C121.83,437.32 123.80,436.00 124.59,436.00 C125.38,436.00 126.81,435.59 127.76,435.08 C131.74,432.97 142.93,428.00 143.69,428.01 C144.36,428.02 156.92,422.16 163.24,418.90 C164.19,418.40 166.27,418.00 167.87,418.00 L 170.76 418.00 L 171.39 467.25 C171.74,494.34 172.29,524.04 172.63,533.25 L 173.23 550.01 L 159.36 556.59 C151.74,560.22 136.90,567.19 126.39,572.09 ZM 564.87 508.33 C548.17,518.47 546.59,518.47 554.65,508.34 C557.21,505.13 561.69,500.02 564.60,497.00 C567.51,493.98 571.15,489.84 572.70,487.81 C574.24,485.78 579.78,479.18 585.00,473.15 C590.22,467.12 597.65,458.27 601.50,453.49 C605.35,448.72 610.19,443.28 612.25,441.40 C615.75,438.23 616.47,438.00 622.82,438.00 C633.78,438.00 642.34,443.17 646.00,452.00 C647.28,455.09 647.21,455.37 644.80,457.13 C635.92,463.60 588.13,494.21 564.87,508.33 Z" style="fill: rgb(255, 255, 255);"/><path d="M 490.57 410.14 C483.75,412.83 477.96,413.81 478.04,412.25 C478.06,411.84 479.60,410.38 481.47,409.00 C499.40,395.82 504.62,389.77 509.56,376.50 C511.82,370.45 512.17,367.92 512.18,357.85 C512.20,345.07 511.65,342.69 505.79,330.00 C501.37,320.44 496.20,312.02 487.97,301.00 C477.29,286.68 465.99,269.02 460.01,257.29 C456.71,250.81 454.01,244.97 454.00,244.31 C454.00,243.66 452.71,240.73 451.13,237.81 C449.56,234.89 447.97,231.26 447.61,229.75 C447.26,228.24 446.63,227.00 446.22,227.00 C445.82,227.00 444.65,233.19 443.64,240.75 C438.65,277.96 431.25,300.74 420.75,311.25 C415.56,316.44 413.25,316.19 407.52,309.81 C402.24,303.94 402.06,304.01 399.41,313.00 C394.67,329.10 392.73,340.58 392.67,353.00 C392.59,367.60 394.20,374.95 399.63,384.92 C401.61,388.54 403.87,392.72 404.67,394.22 C405.46,395.71 408.82,399.38 412.12,402.37 C415.42,405.36 417.68,408.08 417.13,408.42 C413.75,410.51 392.35,397.34 383.15,387.51 C374.59,378.35 364.00,359.79 364.00,353.93 C364.00,352.93 363.61,351.88 363.13,351.58 C361.47,350.55 360.64,341.38 360.70,324.50 C360.75,307.30 361.48,299.44 363.11,298.43 C363.60,298.13 364.00,296.65 364.00,295.14 C364.00,293.63 364.36,291.97 364.80,291.45 C365.23,290.93 366.19,288.70 366.93,286.50 C368.30,282.42 370.43,277.39 374.56,268.50 C378.86,259.23 380.45,254.43 381.99,246.00 C382.44,243.52 383.14,239.77 383.55,237.67 C384.34,233.58 382.81,222.80 380.29,214.69 C379.47,212.04 379.05,209.61 379.37,209.30 C380.37,208.30 386.95,213.98 391.46,219.72 C400.97,231.84 404.00,241.86 404.00,261.19 C404.00,275.27 404.49,277.00 408.51,277.00 C411.05,277.00 415.27,272.65 416.76,268.50 C419.67,260.41 420.14,246.24 418.03,230.50 C416.43,218.61 416.31,193.93 417.81,185.50 C421.13,166.86 423.38,160.22 433.05,140.50 C443.17,119.86 455.25,102.89 470.39,88.04 C478.40,80.19 479.61,80.61 477.52,90.54 C474.12,106.66 474.61,125.78 478.95,146.47 C481.66,159.38 485.51,170.66 494.99,193.50 C501.29,208.68 503.32,217.04 503.25,227.50 C503.22,233.02 502.53,238.63 501.49,242.00 C500.55,245.02 499.71,249.30 499.64,251.50 L 499.50 255.50 L 503.89 255.81 C507.79,256.09 508.70,255.72 511.99,252.51 C515.60,248.98 515.99,248.07 521.15,231.21 C521.70,229.40 522.02,223.02 521.86,217.02 C521.70,211.01 521.81,205.86 522.11,205.56 C522.82,204.85 531.19,219.95 534.00,227.00 C535.20,230.02 536.62,233.60 537.16,234.94 C541.28,245.30 546.69,265.37 550.10,283.00 C551.92,292.44 552.32,297.99 552.33,314.00 C552.34,332.00 552.14,334.27 549.67,343.49 C544.69,362.08 537.13,375.14 523.59,388.50 C513.80,398.17 503.05,405.22 490.57,410.14 Z" fill="rgb(231,116,39)"/><path d="M 478.27 405.16 C473.64,408.21 472.93,407.50 475.63,402.50 C476.67,400.57 477.26,396.99 477.28,392.50 C477.32,384.47 475.28,379.60 467.03,368.05 C464.36,364.30 460.75,358.37 459.01,354.87 C455.57,347.92 453.18,344.77 451.93,345.54 C451.49,345.82 450.39,349.52 449.49,353.77 C446.24,369.03 443.58,373.52 438.33,372.53 C435.16,371.94 435.07,372.02 433.55,377.15 C431.56,383.86 431.53,395.58 433.51,399.36 C436.24,404.60 435.33,405.36 430.51,401.90 C423.72,397.03 421.00,390.79 421.00,380.12 C421.00,372.41 421.64,368.79 424.14,362.25 L 425.86 357.75 C428.19,351.66 429.00,347.91 429.00,343.18 C429.00,332.41 434.87,339.64 435.88,351.65 C436.22,355.72 436.95,359.10 437.50,359.18 C438.05,359.25 439.51,357.55 440.73,355.40 C442.76,351.85 442.97,350.16 442.98,336.80 C442.99,328.28 443.47,320.92 444.12,319.30 C444.74,317.76 445.58,315.60 445.99,314.50 C449.11,306.11 458.78,291.23 461.75,290.25 C462.68,289.94 463.00,291.87 463.00,297.78 C463.00,308.22 464.15,313.86 468.69,325.70 C471.95,334.19 472.43,336.54 472.33,343.25 C472.27,347.51 472.55,351.00 472.95,351.00 C474.51,351.00 477.22,346.98 478.43,342.88 C479.12,340.53 480.22,338.43 480.86,338.21 C483.61,337.30 489.67,356.73 491.47,372.25 C492.96,384.98 487.23,399.25 478.27,405.16 ZM 501.51 241.94 C500.94,245.31 500.46,248.53 500.29,250.25 L 499.81 255.00 L 503.50 255.00 C511.43,255.00 515.88,248.49 519.55,231.50 C521.42,222.86 521.12,214.77 518.40,201.25 C518.04,199.46 518.16,198.00 518.66,198.00 C520.53,198.00 532.05,220.73 536.55,233.30 C536.68,233.66 536.80,234.01 536.93,234.36 C536.28,232.74 535.06,229.66 534.00,227.00 C531.19,219.95 522.82,204.85 522.11,205.56 C521.81,205.86 521.70,211.01 521.86,217.02 C522.02,223.02 521.70,229.40 521.15,231.21 C515.99,248.07 515.60,248.98 511.99,252.51 C508.70,255.72 507.79,256.09 503.89,255.81 L 499.50 255.50 L 499.64 251.50 C499.71,249.30 500.55,245.02 501.49,242.00 ZM 401.90 389.09 C405.85,395.44 410.90,400.91 417.45,405.96 C426.46,412.92 424.51,413.59 412.08,407.82 C402.14,403.21 389.61,394.40 383.15,387.51 C392.35,397.34 413.75,410.51 417.13,408.42 C417.68,408.08 415.42,405.36 412.12,402.37 C408.82,399.38 405.46,395.71 404.67,394.22 C404.17,393.29 403.11,391.32 401.90,389.09 ZM 453.62 243.01 C452.55,240.35 449.51,234.67 447.46,231.68 C446.77,230.67 445.94,230.29 445.61,230.82 C445.33,231.28 444.24,237.33 443.06,244.92 C443.26,243.55 443.45,242.16 443.64,240.75 C444.65,233.19 445.82,227.00 446.22,227.00 C446.63,227.00 447.26,228.24 447.61,229.75 C447.97,231.26 449.56,234.89 451.13,237.81 C452.19,239.77 453.12,241.73 453.62,243.01 ZM 476.58 95.66 C475.61,103.79 475.35,116.46 475.89,126.33 C474.90,115.37 475.13,105.06 476.58,95.66 ZM 433.24 289.02 C436.66,279.33 439.55,267.09 441.96,252.14 C439.42,268.63 437.74,276.00 434.37,285.87 C434.01,286.94 433.63,287.99 433.24,289.02 ZM 483.30 162.85 C485.55,169.75 488.45,177.29 492.53,187.14 C494.66,192.28 496.45,196.82 497.92,200.89 C497.06,198.61 496.09,196.16 494.99,193.50 C489.49,180.25 485.89,170.90 483.30,162.85 ZM 501.72 213.14 C503.62,220.92 503.89,227.05 502.95,233.66 C503.14,231.67 503.24,229.58 503.25,227.50 C503.29,222.56 502.85,218.08 501.72,213.14 ZM 543.97 256.50 C546.28,264.86 548.23,273.36 550.10,283.00 C548.41,274.27 546.23,264.95 543.97,256.50 ZM 420.21 311.77 C418.16,313.84 416.22,315.00 414.59,315.00 C413.67,315.00 412.54,314.47 411.16,313.37 C414.38,315.87 416.60,315.25 420.21,311.77 Z" fill="rgb(241,173,87)"/></g></svg>